<svg width="1920" height="691" viewBox="0 0 1920 691" fill="none" xmlns="http://www.w3.org/2000/svg">
<g filter="url(#filter0_d_2102_1309)">
<rect x="560" y="557" width="66" height="66" fill="#E1FFCC" fill-opacity="0.16" shape-rendering="crispEdges"/>
</g>
<g filter="url(#filter1_d_2102_1309)">
<rect x="161" y="424" width="66" height="66" fill="#E1FFCC" fill-opacity="0.16" shape-rendering="crispEdges"/>
</g>
<g filter="url(#filter2_d_2102_1309)">
<rect x="293" y="91" width="66" height="66" fill="#E1FFCC" fill-opacity="0.16" shape-rendering="crispEdges"/>
</g>
<g filter="url(#filter3_d_2102_1309)">
<rect x="694" y="23" width="66" height="66" fill="#E1FFCC" fill-opacity="0.16" shape-rendering="crispEdges"/>
</g>
<g filter="url(#filter4_d_2102_1309)">
<rect x="1294" y="490" width="66" height="66" fill="#E1FFCC" fill-opacity="0.16" shape-rendering="crispEdges"/>
</g>
<g filter="url(#filter5_d_2102_1309)">
<rect x="1627" y="357" width="66" height="66" fill="#E1FFCC" fill-opacity="0.16" shape-rendering="crispEdges"/>
</g>
<g filter="url(#filter6_d_2102_1309)">
<rect x="1627" y="224" width="66" height="66" fill="#E1FFCC" fill-opacity="0.16" shape-rendering="crispEdges"/>
</g>
<g filter="url(#filter7_d_2102_1309)">
<rect x="1027" y="157" width="66" height="66" fill="#E1FFCC" fill-opacity="0.16" shape-rendering="crispEdges"/>
</g>
<g filter="url(#filter8_d_2102_1309)">
<rect x="1494" y="90" width="66" height="66" fill="#E1FFCC" fill-opacity="0.16" shape-rendering="crispEdges"/>
</g>
<line x1="160.375" y1="416" x2="160.375" y2="430" stroke="#9FE870" stroke-width="0.75"/>
<line x1="167" y1="423.375" x2="153" y2="423.375" stroke="#9FE870" stroke-width="0.75"/>
<line x1="293.375" y1="150" x2="293.375" y2="164" stroke="#9FE870" stroke-width="0.75"/>
<line x1="300" y1="157.375" x2="286" y2="157.375" stroke="#9FE870" stroke-width="0.75"/>
<line x1="693.375" y1="149" x2="693.375" y2="163" stroke="#9FE870" stroke-width="0.75"/>
<line x1="700" y1="156.375" x2="686" y2="156.375" stroke="#9FE870" stroke-width="0.75"/>
<line x1="893.375" y1="283" x2="893.375" y2="297" stroke="#9FE870" stroke-width="0.75"/>
<line x1="900" y1="290.375" x2="886" y2="290.375" stroke="#9FE870" stroke-width="0.75"/>
<line x1="826.375" y1="550" x2="826.375" y2="564" stroke="#9FE870" stroke-width="0.75"/>
<line x1="833" y1="557.375" x2="819" y2="557.375" stroke="#9FE870" stroke-width="0.75"/>
<line x1="1227.38" y1="150" x2="1227.38" y2="164" stroke="#9FE870" stroke-width="0.75"/>
<line x1="1234" y1="157.375" x2="1220" y2="157.375" stroke="#9FE870" stroke-width="0.75"/>
<line x1="1427.38" y1="216" x2="1427.38" y2="230" stroke="#9FE870" stroke-width="0.75"/>
<line x1="1434" y1="223.375" x2="1420" y2="223.375" stroke="#9FE870" stroke-width="0.75"/>
<line x1="1360.38" y1="416" x2="1360.38" y2="430" stroke="#9FE870" stroke-width="0.75"/>
<line x1="1367" y1="423.375" x2="1353" y2="423.375" stroke="#9FE870" stroke-width="0.75"/>
<line x1="1693.38" y1="216" x2="1693.38" y2="230" stroke="#9FE870" stroke-width="0.75"/>
<line x1="1700" y1="223.375" x2="1686" y2="223.375" stroke="#9FE870" stroke-width="0.75"/>
<line x1="1493.38" y1="549" x2="1493.38" y2="563" stroke="#9FE870" stroke-width="0.75"/>
<line x1="1500" y1="556.375" x2="1486" y2="556.375" stroke="#9FE870" stroke-width="0.75"/>
<line x1="1160.38" y1="616" x2="1160.38" y2="630" stroke="#9FE870" stroke-width="0.75"/>
<line x1="1167" y1="623.375" x2="1153" y2="623.375" stroke="#9FE870" stroke-width="0.75"/>
<line x1="93.375" y1="16" x2="93.375" y2="30" stroke="#9FE870" stroke-width="0.75"/>
<line x1="100" y1="23.375" x2="86" y2="23.375" stroke="#9FE870" stroke-width="0.75"/>
<line x1="26.375" y1="216" x2="26.375" y2="230" stroke="#9FE870" stroke-width="0.75"/>
<line x1="33" y1="223.375" x2="19" y2="223.375" stroke="#9FE870" stroke-width="0.75"/>
<g opacity="0.18">
<path d="M26.666 -310V690" stroke="#9FE870"/>
<path d="M93.333 -310V690" stroke="#9FE870"/>
<path d="M160 -310V690" stroke="#9FE870"/>
<path d="M226.666 -310V690" stroke="#9FE870"/>
<path d="M293.333 -310V690" stroke="#9FE870"/>
<path d="M360 -310V690" stroke="#9FE870"/>
<path d="M426.666 -310V690" stroke="#9FE870"/>
<path d="M493.333 -310V690" stroke="#9FE870"/>
<path d="M560 -310V690" stroke="#9FE870"/>
<path d="M626.666 -310V690" stroke="#9FE870"/>
<path d="M693.333 -310V690" stroke="#9FE870"/>
<path d="M760 -310V690" stroke="#9FE870"/>
<path d="M826.666 -310V690" stroke="#9FE870"/>
<path d="M893.333 -310V690" stroke="#9FE870"/>
<path d="M960 -310V690" stroke="#9FE870"/>
<path d="M-40 690H960" stroke="#9FE870"/>
<path d="M-40 623.333H960" stroke="#9FE870"/>
<path d="M-40 556.667H960" stroke="#9FE870"/>
<path d="M-40 490H960" stroke="#9FE870"/>
<path d="M-40 423.333H960" stroke="#9FE870"/>
<path d="M-40 356.667H960" stroke="#9FE870"/>
<path d="M-40 290H960" stroke="#9FE870"/>
<path d="M-40 223.333H960" stroke="#9FE870"/>
<path d="M-40 156.667H960" stroke="#9FE870"/>
<path d="M-40 90H960" stroke="#9FE870"/>
<path d="M-40 23.3335H960" stroke="#9FE870"/>
<path d="M960 -310V690" stroke="#9FE870"/>
<path d="M1026.67 -310V690" stroke="#9FE870"/>
<path d="M1093.33 -310V690" stroke="#9FE870"/>
<path d="M1160 -310V690" stroke="#9FE870"/>
<path d="M1226.67 -310V690" stroke="#9FE870"/>
<path d="M1293.33 -310V690" stroke="#9FE870"/>
<path d="M1360 -310V690" stroke="#9FE870"/>
<path d="M1426.67 -310V690" stroke="#9FE870"/>
<path d="M1493.33 -310V690" stroke="#9FE870"/>
<path d="M1560 -310V690" stroke="#9FE870"/>
<path d="M1626.67 -310V690" stroke="#9FE870"/>
<path d="M1693.33 -310V690" stroke="#9FE870"/>
<path d="M1760 -310V690" stroke="#9FE870"/>
<path d="M1826.67 -310V690" stroke="#9FE870"/>
<path d="M1893.33 -310V690" stroke="#9FE870"/>
<path d="M960 690H1960" stroke="#9FE870"/>
<path d="M960 623.333H1960" stroke="#9FE870"/>
<path d="M960 556.667H1960" stroke="#9FE870"/>
<path d="M960 490H1960" stroke="#9FE870"/>
<path d="M960 423.333H1960" stroke="#9FE870"/>
<path d="M960 356.667H1960" stroke="#9FE870"/>
<path d="M960 290H1960" stroke="#9FE870"/>
<path d="M960 223.333H1960" stroke="#9FE870"/>
<path d="M960 156.667H1960" stroke="#9FE870"/>
<path d="M960 90H1960" stroke="#9FE870"/>
<path d="M960 23.3335H1960" stroke="#9FE870"/>
</g>
<defs>
<filter id="filter0_d_2102_1309" x="559" y="556" width="68" height="68" filterUnits="userSpaceOnUse" color-interpolation-filters="sRGB">
<feFlood flood-opacity="0" result="BackgroundImageFix"/>
<feColorMatrix in="SourceAlpha" type="matrix" values="0 0 0 0 0 0 0 0 0 0 0 0 0 0 0 0 0 0 127 0" result="hardAlpha"/>
<feOffset/>
<feGaussianBlur stdDeviation="0.5"/>
<feComposite in2="hardAlpha" operator="out"/>
<feColorMatrix type="matrix" values="0 0 0 0 0.616334 0 0 0 0 0.866667 0 0 0 0 0.429722 0 0 0 1 0"/>
<feBlend mode="normal" in2="BackgroundImageFix" result="effect1_dropShadow_2102_1309"/>
<feBlend mode="normal" in="SourceGraphic" in2="effect1_dropShadow_2102_1309" result="shape"/>
</filter>
<filter id="filter1_d_2102_1309" x="160" y="423" width="68" height="68" filterUnits="userSpaceOnUse" color-interpolation-filters="sRGB">
<feFlood flood-opacity="0" result="BackgroundImageFix"/>
<feColorMatrix in="SourceAlpha" type="matrix" values="0 0 0 0 0 0 0 0 0 0 0 0 0 0 0 0 0 0 127 0" result="hardAlpha"/>
<feOffset/>
<feGaussianBlur stdDeviation="0.5"/>
<feComposite in2="hardAlpha" operator="out"/>
<feColorMatrix type="matrix" values="0 0 0 0 0.616334 0 0 0 0 0.866667 0 0 0 0 0.429722 0 0 0 1 0"/>
<feBlend mode="normal" in2="BackgroundImageFix" result="effect1_dropShadow_2102_1309"/>
<feBlend mode="normal" in="SourceGraphic" in2="effect1_dropShadow_2102_1309" result="shape"/>
</filter>
<filter id="filter2_d_2102_1309" x="292" y="90" width="68" height="68" filterUnits="userSpaceOnUse" color-interpolation-filters="sRGB">
<feFlood flood-opacity="0" result="BackgroundImageFix"/>
<feColorMatrix in="SourceAlpha" type="matrix" values="0 0 0 0 0 0 0 0 0 0 0 0 0 0 0 0 0 0 127 0" result="hardAlpha"/>
<feOffset/>
<feGaussianBlur stdDeviation="0.5"/>
<feComposite in2="hardAlpha" operator="out"/>
<feColorMatrix type="matrix" values="0 0 0 0 0.616334 0 0 0 0 0.866667 0 0 0 0 0.429722 0 0 0 1 0"/>
<feBlend mode="normal" in2="BackgroundImageFix" result="effect1_dropShadow_2102_1309"/>
<feBlend mode="normal" in="SourceGraphic" in2="effect1_dropShadow_2102_1309" result="shape"/>
</filter>
<filter id="filter3_d_2102_1309" x="693" y="22" width="68" height="68" filterUnits="userSpaceOnUse" color-interpolation-filters="sRGB">
<feFlood flood-opacity="0" result="BackgroundImageFix"/>
<feColorMatrix in="SourceAlpha" type="matrix" values="0 0 0 0 0 0 0 0 0 0 0 0 0 0 0 0 0 0 127 0" result="hardAlpha"/>
<feOffset/>
<feGaussianBlur stdDeviation="0.5"/>
<feComposite in2="hardAlpha" operator="out"/>
<feColorMatrix type="matrix" values="0 0 0 0 0.616334 0 0 0 0 0.866667 0 0 0 0 0.429722 0 0 0 1 0"/>
<feBlend mode="normal" in2="BackgroundImageFix" result="effect1_dropShadow_2102_1309"/>
<feBlend mode="normal" in="SourceGraphic" in2="effect1_dropShadow_2102_1309" result="shape"/>
</filter>
<filter id="filter4_d_2102_1309" x="1293" y="489" width="68" height="68" filterUnits="userSpaceOnUse" color-interpolation-filters="sRGB">
<feFlood flood-opacity="0" result="BackgroundImageFix"/>
<feColorMatrix in="SourceAlpha" type="matrix" values="0 0 0 0 0 0 0 0 0 0 0 0 0 0 0 0 0 0 127 0" result="hardAlpha"/>
<feOffset/>
<feGaussianBlur stdDeviation="0.5"/>
<feComposite in2="hardAlpha" operator="out"/>
<feColorMatrix type="matrix" values="0 0 0 0 0.616334 0 0 0 0 0.866667 0 0 0 0 0.429722 0 0 0 1 0"/>
<feBlend mode="normal" in2="BackgroundImageFix" result="effect1_dropShadow_2102_1309"/>
<feBlend mode="normal" in="SourceGraphic" in2="effect1_dropShadow_2102_1309" result="shape"/>
</filter>
<filter id="filter5_d_2102_1309" x="1626" y="356" width="68" height="68" filterUnits="userSpaceOnUse" color-interpolation-filters="sRGB">
<feFlood flood-opacity="0" result="BackgroundImageFix"/>
<feColorMatrix in="SourceAlpha" type="matrix" values="0 0 0 0 0 0 0 0 0 0 0 0 0 0 0 0 0 0 127 0" result="hardAlpha"/>
<feOffset/>
<feGaussianBlur stdDeviation="0.5"/>
<feComposite in2="hardAlpha" operator="out"/>
<feColorMatrix type="matrix" values="0 0 0 0 0.616334 0 0 0 0 0.866667 0 0 0 0 0.429722 0 0 0 1 0"/>
<feBlend mode="normal" in2="BackgroundImageFix" result="effect1_dropShadow_2102_1309"/>
<feBlend mode="normal" in="SourceGraphic" in2="effect1_dropShadow_2102_1309" result="shape"/>
</filter>
<filter id="filter6_d_2102_1309" x="1626" y="223" width="68" height="68" filterUnits="userSpaceOnUse" color-interpolation-filters="sRGB">
<feFlood flood-opacity="0" result="BackgroundImageFix"/>
<feColorMatrix in="SourceAlpha" type="matrix" values="0 0 0 0 0 0 0 0 0 0 0 0 0 0 0 0 0 0 127 0" result="hardAlpha"/>
<feOffset/>
<feGaussianBlur stdDeviation="0.5"/>
<feComposite in2="hardAlpha" operator="out"/>
<feColorMatrix type="matrix" values="0 0 0 0 0.616334 0 0 0 0 0.866667 0 0 0 0 0.429722 0 0 0 1 0"/>
<feBlend mode="normal" in2="BackgroundImageFix" result="effect1_dropShadow_2102_1309"/>
<feBlend mode="normal" in="SourceGraphic" in2="effect1_dropShadow_2102_1309" result="shape"/>
</filter>
<filter id="filter7_d_2102_1309" x="1026" y="156" width="68" height="68" filterUnits="userSpaceOnUse" color-interpolation-filters="sRGB">
<feFlood flood-opacity="0" result="BackgroundImageFix"/>
<feColorMatrix in="SourceAlpha" type="matrix" values="0 0 0 0 0 0 0 0 0 0 0 0 0 0 0 0 0 0 127 0" result="hardAlpha"/>
<feOffset/>
<feGaussianBlur stdDeviation="0.5"/>
<feComposite in2="hardAlpha" operator="out"/>
<feColorMatrix type="matrix" values="0 0 0 0 0.616334 0 0 0 0 0.866667 0 0 0 0 0.429722 0 0 0 1 0"/>
<feBlend mode="normal" in2="BackgroundImageFix" result="effect1_dropShadow_2102_1309"/>
<feBlend mode="normal" in="SourceGraphic" in2="effect1_dropShadow_2102_1309" result="shape"/>
</filter>
<filter id="filter8_d_2102_1309" x="1493" y="89" width="68" height="68" filterUnits="userSpaceOnUse" color-interpolation-filters="sRGB">
<feFlood flood-opacity="0" result="BackgroundImageFix"/>
<feColorMatrix in="SourceAlpha" type="matrix" values="0 0 0 0 0 0 0 0 0 0 0 0 0 0 0 0 0 0 127 0" result="hardAlpha"/>
<feOffset/>
<feGaussianBlur stdDeviation="0.5"/>
<feComposite in2="hardAlpha" operator="out"/>
<feColorMatrix type="matrix" values="0 0 0 0 0.616334 0 0 0 0 0.866667 0 0 0 0 0.429722 0 0 0 1 0"/>
<feBlend mode="normal" in2="BackgroundImageFix" result="effect1_dropShadow_2102_1309"/>
<feBlend mode="normal" in="SourceGraphic" in2="effect1_dropShadow_2102_1309" result="shape"/>
</filter>
</defs>
</svg>
