<svg width="16" height="16" viewBox="0 0 16 16" fill="none" xmlns="http://www.w3.org/2000/svg">
<path d="M14.638 9.86031L9.8713 7.99746L14.6794 6.13461C14.9281 6.05182 15.0939 5.76204 15.0525 5.51366C14.9696 4.9755 14.7209 4.47874 14.4307 4.02338C14.182 3.52662 13.8504 3.11265 13.436 2.74008C13.2287 2.5745 12.9386 2.5745 12.7313 2.74008L8.71072 5.96902L9.53971 0.877236C9.62261 0.58746 9.45681 0.33908 9.20811 0.256287C8.71072 0.0493038 8.13043 -0.0334888 7.59158 0.0079078C7.05274 -0.0334888 6.47245 0.0493038 5.97506 0.256287C5.72636 0.33908 5.56057 0.628857 5.64347 0.877236L6.47245 5.96902L2.45186 2.74008C2.24461 2.5331 1.95447 2.5331 1.74722 2.74008C1.33273 3.07126 1.00113 3.52662 0.752437 4.02338C0.420841 4.47874 0.213593 4.9755 0.0892453 5.51366C0.0477959 5.80344 0.213594 6.05182 0.46229 6.13461L5.18752 7.99746L0.379391 9.86031C0.130695 9.9431 -0.0351017 10.2329 0.00634774 10.4813C0.0892465 11.0194 0.296494 11.5162 0.628089 11.9715C0.876785 12.4683 1.20838 12.8823 1.62287 13.2548C1.83012 13.4204 2.12027 13.4204 2.32751 13.2548L6.3481 10.0259L5.51912 15.1177C5.43622 15.4075 5.60202 15.6558 5.85071 15.78C6.38955 15.9456 6.9284 16.0284 7.46724 15.987C8.00608 16.0284 8.58637 15.9456 9.08377 15.78C9.33246 15.6972 9.49826 15.4075 9.41536 15.1177L8.58637 10.0259L12.607 13.2548C12.8142 13.4204 13.1044 13.4204 13.3531 13.2548C13.7675 12.9237 14.0991 12.5097 14.3478 12.0129C14.6794 11.5576 14.8867 11.0608 15.011 10.5227C15.0525 10.1915 14.9281 9.9431 14.638 9.86031Z" fill="#BFF747"/>
</svg>
